<svg width="375" height="667" viewBox="0 0 375 667" fill="none" xmlns="http://www.w3.org/2000/svg">
<g clip-path="url(#clip0_0_27)">
<rect width="375" height="667" fill="white"/>
<rect width="375" height="667" fill="url(#paint0_linear_0_27)"/>
<g filter="url(#filter0_dd_0_27)">
<path fill-rule="evenodd" clip-rule="evenodd" d="M236.467 280.171C229.601 290.468 229.737 304.414 237.774 314.7C245.811 324.987 259.309 328.493 270.961 324.321C269.257 326.876 267.123 329.207 264.57 331.201C251.732 341.231 233.193 338.955 223.162 326.116C213.131 313.278 215.408 294.739 228.246 284.708C230.799 282.714 233.576 281.206 236.467 280.171Z" fill="white"/>
</g>
<path fill-rule="evenodd" clip-rule="evenodd" d="M-27 432.371L43.3131 357.929L65.0462 383.397L95.1515 329L138.894 384.73L159.153 388.821L187 424.296V432.371H-27Z" fill="url(#paint1_linear_0_27)"/>
<path fill-rule="evenodd" clip-rule="evenodd" d="M107 439.837L127.701 400.513L170.005 385.316L216.488 316.601L238.66 346.732L250.535 336.221L299.698 257L340.022 319.567L366.354 332.505L395.512 377.772L426.838 387.912L456.968 412.705L461 440.962L107 439.837Z" fill="url(#paint2_linear_0_27)"/>
<rect y="425" width="375" height="242" fill="#6051BF"/>
<ellipse opacity="0.02" cx="158" cy="657.5" rx="515" ry="216.5" fill="white"/>
<ellipse opacity="0.02" cx="159.348" cy="658.067" rx="438.154" ry="184.195" fill="white"/>
<ellipse opacity="0.02" cx="160.696" cy="658.634" rx="339.738" ry="142.822" fill="white"/>
<ellipse opacity="0.02" cx="160.696" cy="658.633" rx="242.67" ry="102.016" fill="white"/>
<ellipse opacity="0.02" cx="162.044" cy="659.2" rx="152.343" ry="64.0432" fill="white"/>
<ellipse opacity="0.02" cx="162.045" cy="659.2" rx="79.5419" ry="33.4385" fill="white"/>
<path fill-rule="evenodd" clip-rule="evenodd" d="M-27 424.418L43.3131 484.655L65.0462 464.047L95.1515 508.063L138.894 462.968L159.153 459.657L187 430.952V424.418" fill="url(#paint3_linear_0_27)"/>
<path fill-rule="evenodd" clip-rule="evenodd" d="M107 424.758L127.701 451.248L170.005 461.485L216.488 507.773L238.66 487.476L250.535 494.556L299.698 547.922L340.022 505.775L366.354 497.06L395.512 466.567L426.838 459.736L456.968 443.034L461 424" fill="url(#paint4_linear_0_27)"/>
<rect x="154.316" y="404.691" width="3.15789" height="19.3086" fill="#4F4FBD"/>
<path fill-rule="evenodd" clip-rule="evenodd" d="M155.5 387L163 407.531H148L155.5 387Z" fill="#5454B7"/>
<path fill-rule="evenodd" clip-rule="evenodd" d="M155.5 388.35L163 398.7H148L155.5 388.35Z" fill="#5454B7"/>
<path fill-rule="evenodd" clip-rule="evenodd" d="M155.5 378L163 392.765H148L155.5 378Z" fill="#5454B7"/>
<g opacity="0.45">
<rect width="3.15789" height="15.5309" transform="matrix(1 0 0 -1 154.316 439.531)" fill="#4F4FBD"/>
<path fill-rule="evenodd" clip-rule="evenodd" d="M155.5 453.761L163 437.247H148L155.5 453.761Z" fill="#5454B7"/>
<path fill-rule="evenodd" clip-rule="evenodd" d="M155.5 452.675L163 444.35H148L155.5 452.675Z" fill="#5454B7"/>
<path fill-rule="evenodd" clip-rule="evenodd" d="M155.5 461L163 449.123H148L155.5 461Z" fill="#5454B7"/>
</g>
<g clip-path="url(#clip1_0_27)">
<g filter="url(#filter1_d_0_27)">
<path fill-rule="evenodd" clip-rule="evenodd" d="M114.378 227.75L112.908 228.523L113.189 226.886L112 225.727L113.643 225.489L114.378 224L115.112 225.489L116.755 225.727L115.566 226.886L115.847 228.523L114.378 227.75Z" fill="white"/>
</g>
<g filter="url(#filter2_d_0_27)">
<path fill-rule="evenodd" clip-rule="evenodd" d="M305 168.886L301.91 170.511L302.5 167.07L300 164.633L303.455 164.131L305 161L306.545 164.131L310 164.633L307.5 167.07L308.09 170.511L305 168.886Z" fill="white"/>
</g>
<g filter="url(#filter3_d_0_27)">
<path fill-rule="evenodd" clip-rule="evenodd" d="M35.3776 347.75L33.9082 348.523L34.1888 346.886L33 345.727L34.6429 345.489L35.3776 344L36.1124 345.489L37.7553 345.727L36.5664 346.886L36.8471 348.523L35.3776 347.75Z" fill="white"/>
</g>
<g filter="url(#filter4_d_0_27)">
<path fill-rule="evenodd" clip-rule="evenodd" d="M257.378 282.75L255.908 283.523L256.189 281.886L255 280.727L256.643 280.489L257.378 279L258.112 280.489L259.755 280.727L258.567 281.886L258.847 283.523L257.378 282.75Z" fill="white"/>
</g>
</g>
<g clip-path="url(#clip2_0_27)">
<g opacity="0.163666" filter="url(#filter5_d_0_27)">
<path fill-rule="evenodd" clip-rule="evenodd" d="M228.622 572.25L230.092 571.477L229.811 573.114L231 574.273L229.357 574.511L228.622 576L227.888 574.511L226.245 574.273L227.434 573.114L227.153 571.477L228.622 572.25Z" fill="white"/>
</g>
<g opacity="0.163666" filter="url(#filter6_d_0_27)">
<path fill-rule="evenodd" clip-rule="evenodd" d="M38 631.114L41.0902 629.489L40.5 632.93L43 635.367L39.5451 635.869L38 639L36.4549 635.869L33 635.367L35.5 632.93L34.9098 629.489L38 631.114Z" fill="white"/>
</g>
<g opacity="0.163666" filter="url(#filter7_d_0_27)">
<path fill-rule="evenodd" clip-rule="evenodd" d="M307.622 452.25L309.092 451.477L308.811 453.114L310 454.273L308.357 454.511L307.622 456L306.888 454.511L305.245 454.273L306.433 453.114L306.153 451.477L307.622 452.25Z" fill="white"/>
</g>
<g opacity="0.163666" filter="url(#filter8_d_0_27)">
<path fill-rule="evenodd" clip-rule="evenodd" d="M85.6224 517.25L87.0918 516.477L86.8112 518.114L88 519.273L86.3571 519.511L85.6224 521L84.8876 519.511L83.2447 519.273L84.4336 518.114L84.1529 516.477L85.6224 517.25Z" fill="white"/>
</g>
</g>
</g>
<defs>
<filter id="filter0_dd_0_27" x="166.907" y="232.171" width="154.054" height="157.284" filterUnits="userSpaceOnUse" color-interpolation-filters="sRGB">
<feFlood flood-opacity="0" result="BackgroundImageFix"/>
<feColorMatrix in="SourceAlpha" type="matrix" values="0 0 0 0 0 0 0 0 0 0 0 0 0 0 0 0 0 0 127 0" result="hardAlpha"/>
<feOffset dy="2"/>
<feGaussianBlur stdDeviation="25"/>
<feColorMatrix type="matrix" values="0 0 0 0 1 0 0 0 0 1 0 0 0 0 1 0 0 0 0.733894 0"/>
<feBlend mode="normal" in2="BackgroundImageFix" result="effect1_dropShadow_0_27"/>
<feColorMatrix in="SourceAlpha" type="matrix" values="0 0 0 0 0 0 0 0 0 0 0 0 0 0 0 0 0 0 127 0" result="hardAlpha"/>
<feOffset dy="2"/>
<feGaussianBlur stdDeviation="12.5"/>
<feColorMatrix type="matrix" values="0 0 0 0 0.928929 0 0 0 0 0.985278 0 0 0 0 0.451003 0 0 0 0.5 0"/>
<feBlend mode="normal" in2="effect1_dropShadow_0_27" result="effect2_dropShadow_0_27"/>
<feBlend mode="normal" in="SourceGraphic" in2="effect2_dropShadow_0_27" result="shape"/>
</filter>
<filter id="filter1_d_0_27" x="102" y="214" width="24.7552" height="24.5226" filterUnits="userSpaceOnUse" color-interpolation-filters="sRGB">
<feFlood flood-opacity="0" result="BackgroundImageFix"/>
<feColorMatrix in="SourceAlpha" type="matrix" values="0 0 0 0 0 0 0 0 0 0 0 0 0 0 0 0 0 0 127 0" result="hardAlpha"/>
<feOffset/>
<feGaussianBlur stdDeviation="5"/>
<feColorMatrix type="matrix" values="0 0 0 0 1 0 0 0 0 1 0 0 0 0 1 0 0 0 0.5 0"/>
<feBlend mode="normal" in2="BackgroundImageFix" result="effect1_dropShadow_0_27"/>
<feBlend mode="normal" in="SourceGraphic" in2="effect1_dropShadow_0_27" result="shape"/>
</filter>
<filter id="filter2_d_0_27" x="290" y="151" width="30" height="29.5106" filterUnits="userSpaceOnUse" color-interpolation-filters="sRGB">
<feFlood flood-opacity="0" result="BackgroundImageFix"/>
<feColorMatrix in="SourceAlpha" type="matrix" values="0 0 0 0 0 0 0 0 0 0 0 0 0 0 0 0 0 0 127 0" result="hardAlpha"/>
<feOffset/>
<feGaussianBlur stdDeviation="5"/>
<feColorMatrix type="matrix" values="0 0 0 0 1 0 0 0 0 1 0 0 0 0 1 0 0 0 0.5 0"/>
<feBlend mode="normal" in2="BackgroundImageFix" result="effect1_dropShadow_0_27"/>
<feBlend mode="normal" in="SourceGraphic" in2="effect1_dropShadow_0_27" result="shape"/>
</filter>
<filter id="filter3_d_0_27" x="20" y="331" width="30.7552" height="30.5226" filterUnits="userSpaceOnUse" color-interpolation-filters="sRGB">
<feFlood flood-opacity="0" result="BackgroundImageFix"/>
<feColorMatrix in="SourceAlpha" type="matrix" values="0 0 0 0 0 0 0 0 0 0 0 0 0 0 0 0 0 0 127 0" result="hardAlpha"/>
<feOffset/>
<feGaussianBlur stdDeviation="6.5"/>
<feColorMatrix type="matrix" values="0 0 0 0 1 0 0 0 0 1 0 0 0 0 1 0 0 0 0.5 0"/>
<feBlend mode="normal" in2="BackgroundImageFix" result="effect1_dropShadow_0_27"/>
<feBlend mode="normal" in="SourceGraphic" in2="effect1_dropShadow_0_27" result="shape"/>
</filter>
<filter id="filter4_d_0_27" x="242" y="266" width="30.7554" height="30.5226" filterUnits="userSpaceOnUse" color-interpolation-filters="sRGB">
<feFlood flood-opacity="0" result="BackgroundImageFix"/>
<feColorMatrix in="SourceAlpha" type="matrix" values="0 0 0 0 0 0 0 0 0 0 0 0 0 0 0 0 0 0 127 0" result="hardAlpha"/>
<feOffset/>
<feGaussianBlur stdDeviation="6.5"/>
<feColorMatrix type="matrix" values="0 0 0 0 1 0 0 0 0 1 0 0 0 0 1 0 0 0 0.5 0"/>
<feBlend mode="normal" in2="BackgroundImageFix" result="effect1_dropShadow_0_27"/>
<feBlend mode="normal" in="SourceGraphic" in2="effect1_dropShadow_0_27" result="shape"/>
</filter>
<filter id="filter5_d_0_27" x="213.245" y="558.477" width="30.7552" height="30.5225" filterUnits="userSpaceOnUse" color-interpolation-filters="sRGB">
<feFlood flood-opacity="0" result="BackgroundImageFix"/>
<feColorMatrix in="SourceAlpha" type="matrix" values="0 0 0 0 0 0 0 0 0 0 0 0 0 0 0 0 0 0 127 0" result="hardAlpha"/>
<feOffset/>
<feGaussianBlur stdDeviation="6.5"/>
<feColorMatrix type="matrix" values="0 0 0 0 1 0 0 0 0 1 0 0 0 0 1 0 0 0 0.5 0"/>
<feBlend mode="normal" in2="BackgroundImageFix" result="effect1_dropShadow_0_27"/>
<feBlend mode="normal" in="SourceGraphic" in2="effect1_dropShadow_0_27" result="shape"/>
</filter>
<filter id="filter6_d_0_27" x="20" y="616.489" width="36" height="35.5106" filterUnits="userSpaceOnUse" color-interpolation-filters="sRGB">
<feFlood flood-opacity="0" result="BackgroundImageFix"/>
<feColorMatrix in="SourceAlpha" type="matrix" values="0 0 0 0 0 0 0 0 0 0 0 0 0 0 0 0 0 0 127 0" result="hardAlpha"/>
<feOffset/>
<feGaussianBlur stdDeviation="6.5"/>
<feColorMatrix type="matrix" values="0 0 0 0 1 0 0 0 0 1 0 0 0 0 1 0 0 0 0.5 0"/>
<feBlend mode="normal" in2="BackgroundImageFix" result="effect1_dropShadow_0_27"/>
<feBlend mode="normal" in="SourceGraphic" in2="effect1_dropShadow_0_27" result="shape"/>
</filter>
<filter id="filter7_d_0_27" x="292.245" y="438.477" width="30.7554" height="30.5226" filterUnits="userSpaceOnUse" color-interpolation-filters="sRGB">
<feFlood flood-opacity="0" result="BackgroundImageFix"/>
<feColorMatrix in="SourceAlpha" type="matrix" values="0 0 0 0 0 0 0 0 0 0 0 0 0 0 0 0 0 0 127 0" result="hardAlpha"/>
<feOffset/>
<feGaussianBlur stdDeviation="6.5"/>
<feColorMatrix type="matrix" values="0 0 0 0 1 0 0 0 0 1 0 0 0 0 1 0 0 0 0.5 0"/>
<feBlend mode="normal" in2="BackgroundImageFix" result="effect1_dropShadow_0_27"/>
<feBlend mode="normal" in="SourceGraphic" in2="effect1_dropShadow_0_27" result="shape"/>
</filter>
<filter id="filter8_d_0_27" x="70.2448" y="503.477" width="30.7552" height="30.5225" filterUnits="userSpaceOnUse" color-interpolation-filters="sRGB">
<feFlood flood-opacity="0" result="BackgroundImageFix"/>
<feColorMatrix in="SourceAlpha" type="matrix" values="0 0 0 0 0 0 0 0 0 0 0 0 0 0 0 0 0 0 127 0" result="hardAlpha"/>
<feOffset/>
<feGaussianBlur stdDeviation="6.5"/>
<feColorMatrix type="matrix" values="0 0 0 0 1 0 0 0 0 1 0 0 0 0 1 0 0 0 0.5 0"/>
<feBlend mode="normal" in2="BackgroundImageFix" result="effect1_dropShadow_0_27"/>
<feBlend mode="normal" in="SourceGraphic" in2="effect1_dropShadow_0_27" result="shape"/>
</filter>
<linearGradient id="paint0_linear_0_27" x1="299.325" y1="492.497" x2="299.325" y2="94.6992" gradientUnits="userSpaceOnUse">
<stop stop-color="#A080EB"/>
<stop offset="1" stop-color="#454EAE"/>
</linearGradient>
<linearGradient id="paint1_linear_0_27" x1="-12.3216" y1="338.973" x2="-12.3216" y2="428.163" gradientUnits="userSpaceOnUse">
<stop stop-color="#8079D9"/>
<stop offset="1" stop-color="#5457B9"/>
</linearGradient>
<linearGradient id="paint2_linear_0_27" x1="131.281" y1="274.748" x2="131.281" y2="433.474" gradientUnits="userSpaceOnUse">
<stop stop-color="#8079D9"/>
<stop offset="1" stop-color="#5457B9"/>
</linearGradient>
<linearGradient id="paint3_linear_0_27" x1="170.304" y1="495.012" x2="170.304" y2="424.418" gradientUnits="userSpaceOnUse">
<stop stop-color="#8079D9" stop-opacity="0.01"/>
<stop offset="1" stop-color="#5457B9"/>
</linearGradient>
<linearGradient id="paint4_linear_0_27" x1="433.382" y1="528.586" x2="433.382" y2="424" gradientUnits="userSpaceOnUse">
<stop stop-color="#8079D9" stop-opacity="0.01"/>
<stop offset="1" stop-color="#5457B9"/>
</linearGradient>
<clipPath id="clip0_0_27">
<rect width="375" height="667" fill="white"/>
</clipPath>
<clipPath id="clip1_0_27">
<rect width="277" height="188" fill="white" transform="translate(33 161)"/>
</clipPath>
<clipPath id="clip2_0_27">
<rect width="277" height="188" fill="white" transform="translate(310 639) rotate(-180)"/>
</clipPath>
</defs>
</svg>
